<?xml version="1.0" encoding="UTF-8" standalone="no"?><!DOCTYPE svg PUBLIC "-//W3C//DTD SVG 1.1//EN" "http://www.w3.org/Graphics/SVG/1.1/DTD/svg11.dtd"><svg width="100%" height="100%" viewBox="0 0 1867 1459" version="1.1" xmlns="http://www.w3.org/2000/svg" xmlns:xlink="http://www.w3.org/1999/xlink" xml:space="preserve" xmlns:serif="http://www.serif.com/" style="fill-rule:evenodd;clip-rule:evenodd;stroke-linejoin:round;stroke-miterlimit:2;"><g><path d="M1866.67,52.083c-0,-28.745 -23.338,-52.083 -52.084,-52.083l-1762.5,-0c-28.745,-0 -52.083,23.338 -52.083,52.083l-0,104.167c-0,28.746 23.338,52.083 52.083,52.083l1762.5,0c28.746,0 52.084,-23.337 52.084,-52.083l-0,-104.167Z" style="fill:#fff;"/><path d="M1866.67,677.083c-0,-28.745 -23.338,-52.083 -52.084,-52.083l-1762.5,0c-28.745,0 -52.083,23.338 -52.083,52.083l-0,104.167c-0,28.746 23.338,52.083 52.083,52.083l1762.5,0c28.746,0 52.084,-23.337 52.084,-52.083l-0,-104.167Z" style="fill:#fff;"/><path d="M1866.67,1302.08c-0,-28.745 -23.338,-52.083 -52.084,-52.083l-1762.5,-0c-28.745,-0 -52.083,23.338 -52.083,52.083l-0,104.167c-0,28.746 23.338,52.083 52.083,52.083l1762.5,0c28.746,0 52.084,-23.337 52.084,-52.083l-0,-104.167Z" style="fill:#fff;"/></g></svg>