<?xml version="1.0" encoding="UTF-8" standalone="no"?><!DOCTYPE svg PUBLIC "-//W3C//DTD SVG 1.1//EN" "http://www.w3.org/Graphics/SVG/1.1/DTD/svg11.dtd"><svg width="100%" height="100%" viewBox="0 0 5934 6007" version="1.1" xmlns="http://www.w3.org/2000/svg" xmlns:xlink="http://www.w3.org/1999/xlink" xml:space="preserve" xmlns:serif="http://www.serif.com/" style="fill-rule:evenodd;clip-rule:evenodd;stroke-linejoin:round;stroke-miterlimit:2;"><g><path d="M5563.24,63.518c-84.69,-84.691 -222.211,-84.691 -306.904,0.003l-5192.82,5192.82c-84.691,84.691 -84.691,222.211 0,306.902l306.905,306.905c84.694,84.694 222.211,84.691 306.902,0l5192.82,-5192.82c84.694,-84.694 84.697,-222.212 0.003,-306.905l-306.905,-306.905Z" style="fill:#fff;"/><path d="M5870.15,5635.99c84.69,-84.691 84.69,-222.212 -0.003,-306.905l-5192.82,-5192.82c-84.691,-84.69 -222.211,-84.69 -306.902,0l-306.905,306.905c-84.694,84.694 -84.691,222.212 0,306.902l5192.82,5192.82c84.693,84.693 222.211,84.696 306.905,0.003l306.905,-306.905Z" style="fill:#fff;"/></g></svg>