<?xml version="1.0" encoding="UTF-8" standalone="no"?><!DOCTYPE svg PUBLIC "-//W3C//DTD SVG 1.1//EN" "http://www.w3.org/Graphics/SVG/1.1/DTD/svg11.dtd"><svg width="100%" height="100%" viewBox="0 0 941 287" version="1.1" xmlns="http://www.w3.org/2000/svg" xmlns:xlink="http://www.w3.org/1999/xlink" xml:space="preserve" xmlns:serif="http://www.serif.com/" style="fill-rule:evenodd;clip-rule:evenodd;stroke-linejoin:round;stroke-miterlimit:2;"><g><path d="M37.891,176.309l-0,76.425l157.135,0c4.531,0 8.876,1.8 12.08,5.004c3.204,3.204 5.003,7.549 5.003,12.08c0,0.004 0,0.008 0,0.013c0,4.531 -1.799,8.876 -5.003,12.079c-3.204,3.204 -7.549,5.004 -12.08,5.004c-38.572,0 -132.298,0 -174.193,0c-5.525,0 -10.824,-2.195 -14.731,-6.102c-3.907,-3.907 -6.102,-9.206 -6.102,-14.731l0,-89.772l37.891,0Zm-0,-120.319l-0,66.276l141.798,-0c4.403,-0 8.625,1.749 11.738,4.862c3.113,3.113 4.862,7.335 4.862,11.738c0,0.001 0,0.002 0,0.003c0,4.402 -1.749,8.625 -4.862,11.738c-3.113,3.113 -7.335,4.862 -11.738,4.862c-40.634,-0 -141.798,-0 -141.798,-0l-0,0.007l-37.891,-0l0,-99.486l37.891,-0Zm-37.891,-20.834l0,-13.18c0,-12.137 9.839,-21.976 21.976,-21.976c41.713,0 131.592,0 169.629,0c4.661,0 9.131,1.852 12.427,5.148c3.296,3.296 5.148,7.766 5.148,12.427c-0,0.002 -0,0.004 -0,0.006c-0,4.661 -1.852,9.132 -5.148,12.428c-3.296,3.296 -7.766,5.147 -12.427,5.147c-43.689,0 -153.714,0 -153.714,0l-0,0l-37.891,0Z" style="fill:#fff;fill-rule:nonzero;"/><path d="M411.885,222.758l-23.408,64.156l-41.211,0l-104.493,-286.914l28.01,0c8.94,-0 16.883,5.703 19.741,14.174c17.583,52.124 77.64,230.162 77.64,230.162l7.193,-21.578l36.528,-0Zm-29.584,-20.833l62.56,-187.68c2.836,-8.507 10.797,-14.245 19.764,-14.245c12.595,0 28.539,0 28.539,0l-73.677,201.925l-37.186,-0Z" style="fill:#fff;fill-rule:nonzero;"/></g><g><rect x="513.997" y="81.442" width="27.387" height="200.158" style="fill:#fff;fill-rule:nonzero;"/><path d="M582.125,135.671l23.299,0l0,20.711c6.904,-8.538 14.216,-14.67 21.937,-18.394c7.721,-3.725 16.305,-5.587 25.752,-5.587c20.711,0 34.7,7.222 41.967,21.665c3.997,7.903 5.995,19.212 5.995,33.927l0,93.607l-24.935,0l0,-91.972c0,-8.902 -1.317,-16.078 -3.951,-21.528c-4.36,-9.084 -12.263,-13.625 -23.708,-13.625c-5.814,-0 -10.583,0.59 -14.307,1.771c-6.722,1.998 -12.626,5.995 -17.713,11.99c-4.088,4.815 -6.745,9.788 -7.971,14.92c-1.226,5.132 -1.839,12.467 -1.839,22.005l-0,76.439l-24.526,0l-0,-145.929Z" style="fill:#fff;fill-rule:nonzero;"/><path d="M743.45,113.462c0.364,-10.174 2.135,-17.622 5.314,-22.346c5.723,-8.357 16.759,-12.535 33.11,-12.535c1.544,-0 3.134,0.045 4.769,0.136c1.635,0.091 3.497,0.227 5.586,0.409l0,22.346c-2.543,-0.182 -4.383,-0.296 -5.518,-0.341c-1.135,-0.046 -2.203,-0.068 -3.202,-0.068c-7.449,-0 -11.9,1.93 -13.353,5.791c-1.453,3.86 -2.18,13.693 -2.18,29.499l24.253,-0l0,19.348l-24.525,-0l-0,125.899l-24.254,0l0,-125.899l-20.302,-0l0,-19.348l20.302,-0l0,-22.891Z" style="fill:#fff;fill-rule:nonzero;"/><path d="M872.756,265.795c16.26,-0 27.41,-6.155 33.45,-18.463c6.041,-12.308 9.061,-26.002 9.061,-41.081c0,-13.625 -2.18,-24.707 -6.54,-33.246c-6.904,-13.444 -18.803,-20.165 -35.699,-20.165c-14.988,-0 -25.888,5.722 -32.701,17.168c-6.812,11.445 -10.219,25.252 -10.219,41.421c0,15.533 3.407,28.477 10.219,38.833c6.813,10.355 17.623,15.533 32.429,15.533Zm0.954,-134.347c18.803,-0 34.699,6.267 47.689,18.803c12.989,12.535 19.484,30.975 19.484,55.319c0,23.527 -5.723,42.966 -17.168,58.317c-11.445,15.351 -29.204,23.027 -53.275,23.027c-20.075,0 -36.017,-6.79 -47.826,-20.37c-11.809,-13.58 -17.713,-31.815 -17.713,-54.706c0,-24.526 6.222,-44.056 18.667,-58.59c12.445,-14.534 29.158,-21.8 50.142,-21.8Z" style="fill:#fff;fill-rule:nonzero;"/></g></svg>