<?xml version="1.0" encoding="UTF-8" standalone="no"?><!DOCTYPE svg PUBLIC "-//W3C//DTD SVG 1.1//EN" "http://www.w3.org/Graphics/SVG/1.1/DTD/svg11.dtd"><svg width="100%" height="100%" viewBox="0 0 1861 304" version="1.1" xmlns="http://www.w3.org/2000/svg" xmlns:xlink="http://www.w3.org/1999/xlink" xml:space="preserve" xmlns:serif="http://www.serif.com/" style="fill-rule:evenodd;clip-rule:evenodd;stroke-linejoin:round;stroke-miterlimit:2;"><g><g><path d="M753.65,51.985l-89.692,126.508l57.818,-0.008l-25.85,88.141l93.032,-128.156l-59.357,-0.146l24.049,-86.339Z" style="fill:#fff;"/></g><g><path d="M0,16.211l209.18,-0l-0,35.156l-171.289,0l-0,87.11l158.398,-0l0,33.203l-158.398,-0l-0,97.265l174.218,0l0,34.18l-212.109,0l0,-286.914Z" style="fill:#fff;fill-rule:nonzero;"/><path d="M285.742,16.211l82.422,244.336l81.445,-244.336l43.555,-0l-104.687,286.914l-41.211,0l-104.493,-286.914l42.969,-0Z" style="fill:#fff;fill-rule:nonzero;"/></g><g><rect x="959.751" y="7.813" width="39.258" height="286.914" style="fill:#fff;fill-rule:nonzero;"/><path d="M1062.1,7.813l45.899,-0l144.921,232.421l0,-232.421l36.915,-0l-0,286.914l-43.555,-0l-147.07,-232.227l-0,232.227l-37.11,-0l0,-286.914Z" style="fill:#fff;fill-rule:nonzero;"/><path d="M1354.67,7.813l199.024,-0l-0,35.156l-160.157,-0l0,87.109l140.821,0l-0,34.18l-140.821,-0l0,130.469l-38.867,-0l0,-286.914Z" style="fill:#fff;fill-rule:nonzero;"/><path d="M1719.13,0c50.651,0 88.151,16.276 112.5,48.828c19.011,25.391 28.516,57.878 28.516,97.461c0,42.839 -10.872,78.451 -32.617,106.836c-25.521,33.333 -61.914,50 -109.18,50c-44.14,-0 -78.841,-14.583 -104.101,-43.75c-22.526,-28.125 -33.789,-63.672 -33.789,-106.641c-0,-38.802 9.635,-72.005 28.906,-99.609c24.739,-35.417 61.328,-53.125 109.765,-53.125Zm3.907,268.359c34.244,0 59.017,-12.272 74.316,-36.816c15.3,-24.544 22.949,-52.767 22.949,-84.668c0,-33.724 -8.821,-60.872 -26.465,-81.445c-17.643,-20.573 -41.764,-30.86 -72.363,-30.86c-29.687,0 -53.906,10.189 -72.656,30.567c-18.75,20.377 -28.125,50.423 -28.125,90.136c-0,31.771 8.04,58.562 24.121,80.372c16.081,21.809 42.155,32.714 78.223,32.714Z" style="fill:#fff;fill-rule:nonzero;"/></g></g></svg>